# xmcd
# Track frame offsets:
# 150
# 13672
# 24798
# 36538
# 49652
# 61334
# 77669
# 92986
# 108594
# 121188
# 134205
# 146722
#
# Disc length: 2164 seconds
# Revision: 0
# Processed by: cddbd v1.5.1PL0 Copyright (c) Steve Scherf et al.
# Submitted via: VisiTrax 2.9.9.209 - For more info visit www.synapsa.com
#
DISCID=a708720c
DTITLE=Curtis Potter - Them old Honky Tonks
DYEAR=1900
DGENRE=Country
TTITLE0=Honky tonks are calling me again
TTITLE1=I'll never always love you
TTITLE2=Holding on to holding on
TTITLE3=I could never love you now
TTITLE4=We're not talking anymore
TTITLE5=Every time I hear the fiddle play
TTITLE6=Far away feeling
TTITLE7=I can't keep my mind off of you
TTITLE8=Lost in the shuffle
TTITLE9=Let me love in paece
TTITLE10=I'm not crazy yet
TTITLE11=The day you left me
EXTD=
EXTT0=
EXTT1=
EXTT2=
EXTT3=
EXTT4=
EXTT5=
EXTT6=
EXTT7=
EXTT8=
EXTT9=
EXTT10=
EXTT11=
PLAYORDER=
